<svg xmlns="http://www.w3.org/2000/svg" width="28" height="20" fill="none" viewBox="0 0 28 20">
  <g clip-path="url(#a)">
    <path fill="#DCDDDE" d="M20.664 20s-.863-1.024-1.582-1.929c3.14-.88 4.34-2.833 4.34-2.833a13.75 13.75 0 0 1-2.758 1.405c-1.198.5-2.349.833-3.476 1.024-2.301.428-4.41.31-6.208-.024a20.231 20.231 0 0 1-3.525-1.024 14.1 14.1 0 0 1-1.75-.81c-.071-.047-.143-.07-.215-.118-.048-.024-.072-.048-.096-.072a8.414 8.414 0 0 1-.671-.405s1.15 1.905 4.195 2.81C8.198 18.929 7.312 20 7.312 20 2.014 19.833 0 16.381 0 16.381c0-7.667 3.452-13.88 3.452-13.88C6.904-.072 10.188 0 10.188 0l.24.285c-4.315 1.239-6.305 3.12-6.305 3.12s.528-.286 1.415-.69c2.565-1.12 4.602-1.43 5.441-1.5.144-.024.264-.048.408-.048a20.422 20.422 0 0 1 4.843-.048 19.64 19.64 0 0 1 7.215 2.286S21.551 1.619 17.476.381l.336-.38s3.284-.072 6.736 2.5c0 0 3.452 6.213 3.452 13.88 0 0-2.038 3.452-7.336 3.619ZM9.517 8.881c-1.366 0-2.445 1.19-2.445 2.643 0 1.452 1.103 2.643 2.445 2.643 1.367 0 2.445-1.19 2.445-2.643.024-1.452-1.078-2.643-2.445-2.643Zm8.75 0c-1.366 0-2.445 1.19-2.445 2.643 0 1.452 1.103 2.643 2.445 2.643 1.367 0 2.445-1.19 2.445-2.643 0-1.452-1.078-2.643-2.445-2.643Z"/>
  </g>
  <defs>
    <clipPath id="a">
      <path fill="#fff" d="M0 0h28v20H0z"/>
    </clipPath>
  </defs>
</svg>
